HIERARCHY
ROOT Hips
{
	OFFSET -0.001795 -0.223333 0.028219
	CHANNELS 6 Xposition Yposition Zposition Zrotation Yrotation Xrotation 
	JOINT LeftUpLeg
	{
		OFFSET 0.069520 -0.091406 -0.006815
		CHANNELS 3 Zrotation Yrotation Xrotation
		JOINT LeftLeg
		{
			OFFSET 0.034277 -0.375199 -0.004496
			CHANNELS 3 Zrotation Yrotation Xrotation
			JOINT LeftFoot
			{
				OFFSET -0.013596 -0.397961 -0.043693
				CHANNELS 3 Zrotation Yrotation Xrotation
				JOINT LeftToe
				{
					OFFSET 0.026358 -0.055791 0.119288
					CHANNELS 3 Zrotation Yrotation Xrotation
					End Site
					{
						OFFSET 0.000000 0.000000 0.000000
					}
				}
			}
		}
	}
	JOINT RightUpLeg
	{
		OFFSET -0.067670 -0.090522 -0.004320
		CHANNELS 3 Zrotation Yrotation Xrotation
		JOINT RightLeg
		{
			OFFSET -0.038290 -0.382569 -0.008850
			CHANNELS 3 Zrotation Yrotation Xrotation
			JOINT RightFoot
			{
				OFFSET 0.015774 -0.398415 -0.042312
				CHANNELS 3 Zrotation Yrotation Xrotation
				JOINT RightToe
				{
					OFFSET -0.025372 -0.048144 0.123348
					CHANNELS 3 Zrotation Yrotation Xrotation
					End Site
					{
						OFFSET 0.000000 0.000000 0.000000
					}
				}
			}
		}
	}
	JOINT Spine
	{
		OFFSET -0.002533 0.108963 -0.026696
		CHANNELS 3 Zrotation Yrotation Xrotation
		JOINT Spine1
		{
			OFFSET 0.005487 0.135180 0.001092
			CHANNELS 3 Zrotation Yrotation Xrotation
			JOINT Spine2
			{
				OFFSET 0.001457 0.052922 0.025425
				CHANNELS 3 Zrotation Yrotation Xrotation
				JOINT Neck
				{
					OFFSET -0.002778 0.213870 -0.042857
					CHANNELS 3 Zrotation Yrotation Xrotation
					JOINT Head
					{
						OFFSET 0.005152 0.064970 0.051349
						CHANNELS 3 Zrotation Yrotation Xrotation
						End Site
						{
							OFFSET 0.000000 0.000000 0.000000
						}
					}
				}
				JOINT LeftShoulder
				{
					OFFSET 0.078845 0.121749 -0.034090
					CHANNELS 3 Zrotation Yrotation Xrotation
					JOINT LeftArm
					{
						OFFSET 0.090977 0.030469 -0.008868
						CHANNELS 3 Zrotation Yrotation Xrotation
						JOINT LeftForeArm
						{
							OFFSET 0.259612 -0.012772 -0.027456
							CHANNELS 3 Zrotation Yrotation Xrotation
							JOINT LeftHand
							{
								OFFSET 0.249234 0.008986 -0.001171
								CHANNELS 3 Zrotation Yrotation Xrotation
								End Site
								{
									OFFSET 0.000000 0.000000 0.000000
								}
							}
						}
					}
				}
				JOINT RightShoulder
				{
					OFFSET -0.081759 0.118833 -0.038615
					CHANNELS 3 Zrotation Yrotation Xrotation
					JOINT RightArm
					{
						OFFSET -0.096012 0.032551 -0.009143
						CHANNELS 3 Zrotation Yrotation Xrotation
						JOINT RightForeArm
						{
							OFFSET -0.253742 -0.013329 -0.021401
							CHANNELS 3 Zrotation Yrotation Xrotation
							JOINT RightHand
							{
								OFFSET -0.255298 0.007772 -0.005559
								CHANNELS 3 Zrotation Yrotation Xrotation
								End Site
								{
									OFFSET 0.000000 0.000000 0.000000
								}
							}
						}
					}
				}
			}
		}
	}
}
MOTION
Frames: 6
Frame Time: 0.050000
0.000000 0.941856 0.000000 -0.868632 -10.873184 7.568133 7.514687 -0.174529 -6.023577 0.704184 -0.130338 1.341200 -2.895038 -2.820711 8.612416 0.000000 0.000000 0.000000 -4.538357 0.589347 -5.181601 -0.649657 -0.135090 -4.510433 -24.688183 -30.966244 64.450861 0.000000 0.000000 0.000000 5.148034 0.108835 -2.822267 -4.347951 1.940505 -2.544723 -1.102429 5.968353 2.240425 3.597229 -1.904902 -7.621104 0.000000 0.000000 0.000000 -15.849751 -1.768617 -0.756516 -54.957246 -5.527395 -3.744494 -6.589969 -23.299232 2.204048 0.000000 0.000000 0.000000 14.699909 -2.136411 -2.407084 58.935912 5.729627 -2.591966 7.380697 25.898873 2.418064 0.000000 0.000000 0.000000 
0.000015 0.940595 0.000612 -1.087162 -12.137868 8.293758 7.137123 -0.171763 -5.280664 1.492241 -0.160304 -0.649027 -2.219176 -1.771719 8.525812 0.000000 0.000000 0.000000 -4.205455 0.679669 -6.419797 -1.078009 -0.094882 -3.968167 -24.418735 -31.053753 63.541053 0.000000 0.000000 0.000000 5.579080 0.113284 -2.941364 -4.593648 1.993078 -3.427276 -1.494758 6.475863 1.967561 3.388828 -1.754110 -7.702250 0.000000 0.000000 0.000000 -16.854153 -0.914394 -1.262458 -54.527056 -4.979877 -3.932937 -6.621968 -22.826069 2.168361 0.000000 0.000000 0.000000 14.811964 -2.654031 -2.707612 59.807360 4.288380 -3.325225 8.624811 25.788159 2.655566 0.000000 0.000000 0.000000 
0.000000 0.940101 0.000844 -0.881965 -11.535830 8.206281 7.235960 -0.190469 -6.054104 1.071159 -0.154082 0.575406 -2.454813 -2.242087 8.196183 0.000000 0.000000 0.000000 -4.058395 0.691269 -6.690367 -1.654628 -0.028466 -3.146883 -24.852366 -31.259939 63.900068 0.000000 0.000000 0.000000 5.171883 0.076165 -2.568121 -3.659160 1.558777 -4.041841 -2.103566 6.040148 1.838105 4.154694 -2.272235 -7.782153 0.000000 0.000000 0.000000 -17.283095 -1.280214 -1.123729 -54.209374 -4.961088 -3.910441 -6.408373 -20.198984 1.868378 0.000000 0.000000 0.000000 15.890165 -2.390982 -2.712573 59.546892 4.085645 -3.404417 6.774125 24.568424 2.145648 0.000000 0.000000 0.000000 
-0.000124 0.939785 0.000944 -0.925428 -12.191260 8.808702 7.577610 -0.171247 -6.272908 0.422100 -0.054326 0.108097 -2.165237 -1.746575 8.302563 0.000000 0.000000 0.000000 -3.992023 0.751610 -7.406626 -1.811917 -0.025580 -3.230335 -24.640360 -31.261921 63.481796 0.000000 0.000000 0.000000 5.041297 0.097620 -2.860085 -4.022713 1.717548 -3.880311 -1.248588 5.139621 1.112608 3.404392 -1.899289 -7.025488 0.000000 0.000000 0.000000 -17.864336 -0.653763 -1.207627 -54.433603 -5.292416 -3.722708 -5.451233 -19.072137 1.642713 0.000000 0.000000 0.000000 15.037963 -2.094686 -2.742298 60.341435 3.808777 -3.531983 6.826196 24.319670 2.042211 0.000000 0.000000 0.000000 
-0.000395 0.940107 0.000926 -0.824374 -12.110751 8.620906 7.254456 -0.195574 -6.678857 0.839044 -0.140784 1.105546 -2.169852 -1.773841 8.216452 0.000000 0.000000 0.000000 -3.879228 0.741664 -7.320004 -2.155231 0.004293 -3.021818 -24.605066 -31.220358 63.543412 0.000000 0.000000 0.000000 4.907938 0.090466 -2.747298 -3.711715 1.600763 -3.496368 -1.403922 4.830339 1.061785 3.460004 -1.856895 -7.864205 0.000000 0.000000 0.000000 -18.081457 -0.627091 -1.195499 -54.144458 -5.657049 -3.546208 -5.828700 -17.971305 1.605978 0.000000 0.000000 0.000000 15.018844 -2.659249 -3.052654 60.433418 3.444657 -3.731910 7.437262 24.300124 2.148089 0.000000 0.000000 0.000000 
-0.000737 0.940848 0.000790 -0.785214 -12.562138 8.995006 7.274932 -0.197094 -6.981107 0.660616 -0.114705 1.061561 -2.007051 -1.413081 8.571835 0.000000 0.000000 0.000000 -3.992082 0.778955 -7.721103 -2.068854 -0.012151 -3.219103 -24.236611 -31.058474 63.352916 0.000000 0.000000 0.000000 5.066142 0.114109 -3.043033 -3.961040 1.705334 -3.512548 -1.230840 4.696068 1.308480 3.529988 -1.988388 -7.322510 0.000000 0.000000 0.000000 -18.101538 -0.168995 -1.333574 -54.097100 -6.010247 -3.414333 -6.300415 -17.725690 1.669414 0.000000 0.000000 0.000000 15.075794 -2.512297 -3.063917 60.761972 3.306974 -3.861693 7.822177 23.882157 2.162591 0.000000 0.000000 0.000000 
